<svg xmlns="http://www.w3.org/2000/svg" viewBox="0 0 1600 1100" preserveAspectRatio="xMidYMid slice"><g fill="none" stroke="#E4E1DA" stroke-opacity=".036" stroke-width=".8" stroke-linejoin="round" stroke-linecap="round"><path d="M770 0 776 4 780 7 784 10 788 13 793 16 798 20 804 24 808 26 812 29 817 32 824 36 828 39 832 41 838 44 844 47 848 49 856 52 860 53 868 56 872 57 880 59 884 60 892 62 900 63 908 64 912 64 920 65 928 65 936 64 941 64 948 63 956 62 964 61 968 60 976 58 984 56 988 55 996 52 1000 51 1008 48 1012 46 1017 44 1024 41 1028 39 1034 36 1040 33 1044 30 1048 28 1054 24 1060 20 1064 17 1068 15 1072 12 1077 8 1082 4 1087 0 M1563 0 1560 6 1557 12 1555 16 1552 23 1550 28 1548 32 1545 40 1543 44 1541 52 1539 56 1537 64 1536 68 1534 76 1533 84 1532 90 1532 96 1532 104 1532 108 1534 116 1536 120 1540 126 1544 130 1548 132 1556 135 1564 135 1572 135 1580 134 1588 132 1592 131 1600 129 M610 0 616 2 622 4 628 6 634 8 640 10 646 12 652 14 658 16 664 18 670 20 676 22 680 24 688 27 692 29 700 32 704 34 708 36 716 40 720 42 725 44 732 48 736 50 740 52 747 56 752 59 756 61 761 64 768 68 772 70 776 72 784 76 788 78 792 80 800 84 804 86 809 88 816 91 820 92 828 95 832 97 840 99 844 100 852 102 860 104 864 105 872 106 880 107 888 108 894 108 900 108 908 108 916 108 924 108 928 108 936 107 944 106 952 105 960 104 964 103 972 102 980 100 984 99 992 97 996 96 1004 93 1009 92 1016 90 1021 88 1028 85 1032 84 1040 81 1044 79 1051 76 1056 74 1060 72 1068 68 1072 66 1076 64 1083 60 1088 57 1092 55 1097 52 1104 48 1108 45 1112 43 1116 40 1122 36 1128 32 1132 29 1136 26 1140 24 1145 20 1150 16 1156 12 1160 9 1164 5 1168 2 1171 0 M1459 0 1456 8 1454 12 1452 17 1449 24 1447 28 1444 36 1442 40 1440 46 1438 52 1436 56 1433 64 1431 68 1428 75 1426 80 1424 85 1421 92 1420 96 1417 104 1415 108 1412 116 1411 120 1408 128 1407 132 1404 140 1403 144 1400 152 1399 156 1397 164 1395 168 1393 176 1392 181 1390 188 1389 196 1388 200 1387 208 1385 216 1385 224 1384 231 1384 236 1384 244 1384 252 1384 256 1385 264 1387 272 1388 276 1391 284 1393 288 1396 293 1400 299 1404 303 1408 307 1412 310 1416 312 1424 316 1428 317 1436 319 1440 320 1448 321 1456 321 1464 321 1471 320 1476 319 1484 318 1492 316 1496 315 1504 312 1508 311 1516 308 1520 307 1527 304 1532 302 1537 300 1544 297 1548 295 1554 292 1560 289 1564 287 1570 284 1576 281 1580 278 1585 276 1592 272 1596 270 1600 268 M492 0 496 5 500 10 504 14 508 18 512 21 516 24 521 28 528 32 532 34 536 36 544 40 548 42 554 44 560 46 566 48 572 50 580 52 584 53 592 55 596 56 604 59 609 60 616 62 624 64 628 65 636 67 640 69 648 71 652 72 660 75 664 76 672 79 676 81 684 84 688 86 694 88 700 91 704 93 712 96 716 98 720 100 728 104 732 106 737 108 744 111 748 113 755 116 760 118 764 120 772 123 776 125 784 128 788 129 796 132 800 133 808 135 812 136 820 138 828 140 832 141 840 142 848 143 854 144 860 145 868 145 876 146 884 146 892 146 900 146 908 145 916 145 924 144 932 144 940 143 948 142 956 140 960 140 968 138 976 137 981 136 988 135 996 133 1000 132 1008 130 1015 128 1020 127 1028 124 1032 123 1040 121 1044 119 1052 117 1056 115 1064 113 1068 111 1076 108 1080 107 1087 104 1092 102 1097 100 1104 97 1108 95 1116 92 1120 90 1125 88 1132 85 1136 83 1142 80 1148 77 1152 75 1159 72 1164 70 1168 68 1176 64 1180 62 1184 60 1192 56 1196 54 1200 52 1208 48 1212 46 1217 44 1224 41 1228 39 1236 36 1240 34 1246 32 1252 30 1257 28 1264 26 1270 24 1276 23 1284 21 1292 21 1300 21 1308 23 1312 24 1318 28 1322 32 1325 36 1328 42 1330 48 1331 56 1332 62 1332 68 1332 76 1332 80 1331 88 1330 96 1329 104 1328 110 1327 116 1325 124 1324 131 1323 136 1321 144 1320 151 1319 156 1317 164 1316 170 1315 176 1313 184 1312 189 1310 196 1309 204 1308 209 1307 216 1305 224 1304 230 1303 236 1302 244 1301 252 1300 256 1299 264 1298 272 1297 280 1296 288 1296 295 1296 300 1295 308 1295 316 1295 324 1296 332 1296 338 1297 344 1298 352 1299 360 1300 366 1302 372 1304 380 1305 384 1308 391 1310 396 1312 400 1316 406 1320 412 1323 416 1326 420 1329 424 1333 428 1337 432 1341 436 1346 440 1351 444 1356 448 1360 451 1364 454 1368 457 1373 460 1378 464 1383 468 1388 472 1392 476 1396 480 1400 484 1403 488 1406 492 1409 496 1412 503 1414 508 1416 513 1418 520 1419 528 1420 536 1420 540 1420 548 1420 556 1420 560 1419 568 1419 576 1418 584 1417 592 1416 598 1415 604 1414 612 1413 620 1412 625 1411 632 1410 640 1409 648 1408 654 1407 660 1406 668 1406 676 1405 684 1405 692 1405 700 1405 708 1406 716 1407 724 1408 731 1409 736 1412 744 1414 748 1416 752 1420 758 1424 762 1428 765 1432 768 1440 772 1444 773 1452 775 1459 776 1464 776 1471 776 1476 776 1484 774 1492 773 1496 772 1504 770 1509 768 1516 765 1520 764 1528 760 1532 759 1537 756 1544 753 1548 750 1552 748 1559 744 1564 741 1568 738 1572 736 1577 732 1583 728 1588 724 1592 721 1596 718 1600 714 M707 1100 707 1092 704 1085 700 1080 696 1077 692 1075 684 1073 676 1073 668 1075 664 1076 656 1080 652 1083 648 1086 644 1089 640 1094 636 1100 636 1100 M436 0 437 4 440 12 441 16 444 23 446 28 449 32 452 38 456 43 460 48 463 52 467 56 472 60 476 63 480 66 484 69 489 72 496 76 500 78 505 80 512 83 516 85 524 88 528 89 536 92 540 93 548 95 552 96 560 98 567 100 572 101 580 103 584 104 592 107 598 108 604 110 612 112 616 113 624 116 628 117 636 119 640 121 648 124 652 125 660 128 664 129 671 132 676 134 680 136 688 139 692 141 700 144 704 146 709 148 716 151 720 152 728 155 732 157 740 160 744 161 752 164 756 165 764 168 768 169 776 171 781 172 788 174 796 175 801 176 808 177 816 178 824 179 832 180 836 180 844 180 852 181 860 181 868 181 876 181 884 180 892 180 896 180 904 179 912 179 920 178 928 177 936 176 940 176 948 175 956 174 964 172 968 172 976 171 984 169 991 168 996 167 1004 166 1012 164 1016 163 1024 162 1032 160 1036 159 1044 157 1051 156 1056 155 1064 153 1069 152 1076 150 1084 149 1088 148 1096 146 1104 144 1108 143 1116 142 1124 140 1128 139 1136 138 1144 137 1150 136 1156 135 1164 135 1172 134 1180 135 1188 135 1192 136 1200 138 1205 140 1212 144 1216 147 1220 151 1224 156 1227 160 1229 164 1232 172 1233 176 1235 184 1236 189 1237 196 1238 204 1238 212 1238 220 1238 228 1238 236 1238 244 1237 252 1237 260 1236 268 1236 272 1235 280 1235 288 1234 296 1233 304 1233 312 1232 319 1232 324 1231 332 1230 340 1230 348 1229 356 1229 364 1229 372 1229 380 1228 388 1228 396 1229 404 1229 412 1229 420 1230 428 1231 436 1232 444 1233 448 1234 456 1236 463 1237 468 1240 476 1241 480 1244 487 1246 492 1248 496 1252 504 1254 508 1257 512 1260 517 1264 523 1267 528 1270 532 1273 536 1276 540 1280 546 1284 552 1287 556 1290 560 1292 564 1296 571 1299 576 1301 580 1304 587 1306 592 1308 597 1310 604 1312 611 1313 616 1314 624 1316 632 1316 636 1317 644 1317 652 1317 660 1318 668 1317 676 1317 684 1317 692 1317 700 1316 708 1316 713 1316 720 1315 728 1315 736 1314 744 1314 752 1314 760 1314 768 1313 776 1314 784 1314 792 1315 800 1315 808 1316 812 1318 820 1320 828 1321 832 1324 838 1327 844 1330 848 1333 852 1337 856 1343 860 1348 863 1352 865 1360 868 1364 869 1372 870 1380 871 1388 871 1396 871 1404 870 1412 869 1419 868 1424 867 1432 866 1439 864 1444 863 1452 861 1456 860 1464 857 1468 856 1476 853 1484 851 1491 848 1496 846 1501 844 1508 841 1512 840 1520 836 1524 834 1529 832 1536 829 1540 827 1545 824 1552 821 1556 818 1560 816 1567 812 1572 809 1576 807 1580 804 1587 800 1592 796 1596 794 1600 791 M0 514 2 508 4 503 6 496 8 489 9 484 11 476 12 468 12 462 12 456 12 448 12 444 11 436 9 428 8 423 6 416 4 412 0 404 0 404 M861 1100 859 1096 856 1092 852 1086 848 1080 846 1076 844 1072 840 1065 837 1060 835 1056 832 1051 828 1044 826 1040 823 1036 820 1031 816 1025 812 1020 809 1016 806 1012 802 1008 798 1004 793 1000 788 996 784 993 780 991 775 988 768 985 764 984 756 982 748 980 744 980 736 979 728 979 720 980 716 980 708 981 700 983 695 984 688 986 682 988 676 990 670 992 664 995 660 996 652 1000 648 1002 644 1004 637 1008 632 1011 628 1013 620 1019 616 1021 612 1024 607 1028 602 1032 597 1036 592 1040 588 1044 584 1047 580 1051 576 1055 572 1059 568 1064 564 1068 561 1072 558 1076 555 1080 552 1084 548 1089 544 1095 541 1100 M394 0 395 8 396 12 397 20 399 28 400 32 402 40 404 45 407 52 408 56 412 64 414 68 417 72 420 77 424 82 428 87 432 91 436 94 440 98 444 101 448 104 454 108 460 111 464 113 469 116 476 119 480 121 488 124 492 126 499 128 504 130 512 132 516 133 524 136 528 137 536 139 540 140 548 142 554 144 560 146 568 148 572 149 580 151 584 152 592 155 596 156 604 159 608 160 616 163 620 164 628 167 632 169 640 172 644 173 651 176 656 178 661 180 668 183 672 184 680 187 684 189 692 192 696 193 704 196 708 197 716 200 720 201 728 203 732 205 740 206 747 208 752 209 760 210 768 212 772 212 780 213 788 214 796 215 804 215 812 215 820 216 828 216 836 216 844 215 852 215 860 215 868 214 876 214 884 213 892 213 900 212 904 212 912 211 920 210 928 209 936 208 940 208 948 207 956 206 964 205 972 204 976 204 984 203 992 202 1000 201 1007 200 1012 199 1020 199 1028 198 1036 197 1044 196 1048 196 1056 195 1064 195 1072 195 1080 195 1088 195 1096 195 1104 196 1108 196 1116 198 1124 200 1128 201 1136 204 1140 206 1144 209 1149 212 1153 216 1157 220 1160 224 1164 230 1167 236 1169 240 1172 248 1173 252 1175 260 1176 267 1177 272 1178 280 1178 288 1179 296 1179 304 1179 312 1178 320 1178 328 1178 336 1177 344 1177 352 1176 360 1176 364 1175 372 1174 380 1173 388 1173 396 1172 401 1171 408 1170 416 1170 424 1169 432 1168 440 1168 444 1167 452 1166 460 1165 468 1165 476 1164 484 1164 492 1164 496 1164 504 1164 512 1164 520 1164 524 1164 532 1165 540 1166 548 1167 556 1168 560 1170 568 1172 576 1173 580 1176 588 1178 592 1180 598 1183 604 1185 608 1188 614 1191 620 1193 624 1196 629 1200 636 1202 640 1204 645 1208 652 1209 656 1212 662 1214 668 1216 672 1219 680 1220 685 1222 692 1224 700 1224 704 1225 712 1226 720 1227 728 1227 736 1227 744 1227 752 1227 760 1227 768 1226 776 1225 784 1225 792 1224 797 1223 804 1222 812 1221 820 1220 826 1219 832 1218 840 1216 848 1215 852 1214 860 1212 868 1211 872 1210 880 1208 888 1207 892 1205 900 1204 905 1202 912 1200 920 1199 924 1197 932 1196 938 1194 944 1192 952 1191 956 1189 964 1188 968 1185 976 1184 980 1181 988 1180 992 1176 1000 1173 1004 1169 1008 1164 1011 1160 1013 1152 1016 1148 1017 1140 1019 1136 1021 1128 1023 1122 1024 1116 1025 1108 1027 1104 1028 1096 1029 1088 1031 1081 1032 1076 1033 1068 1034 1060 1035 1052 1036 1047 1036 1040 1036 1032 1037 1024 1037 1016 1037 1008 1036 1004 1036 996 1035 988 1034 980 1032 976 1031 968 1029 964 1027 956 1024 952 1022 947 1020 940 1016 936 1013 932 1011 928 1008 923 1004 919 1000 914 996 910 992 906 988 902 984 899 980 895 976 891 972 887 968 884 964 880 960 876 956 871 952 867 948 862 944 857 940 852 937 848 934 844 932 836 928 832 927 824 924 816 922 808 920 804 920 796 919 788 919 780 919 772 920 767 920 760 921 752 922 744 924 740 924 732 926 726 928 720 930 712 932 708 933 700 936 696 938 690 940 684 942 680 944 672 947 668 949 662 952 656 955 652 957 646 960 640 963 636 966 632 968 625 972 620 975 616 977 608 983 604 985 600 988 594 992 589 996 584 1000 580 1003 576 1006 572 1009 568 1013 564 1016 559 1020 555 1024 551 1028 546 1032 542 1036 538 1040 534 1044 530 1048 527 1052 523 1056 520 1060 516 1064 512 1069 508 1074 504 1079 500 1084 497 1088 494 1092 491 1096 489 1100 M0 570 4 564 6 560 9 556 12 550 15 544 17 540 20 534 22 528 24 524 27 516 29 512 32 504 33 500 35 492 36 488 38 480 40 472 41 468 42 460 42 452 43 444 43 436 42 428 41 420 40 415 38 408 36 401 34 396 32 392 28 384 25 380 23 376 20 372 16 368 12 364 8 360 4 356 0 353 M1600 867 1596 869 1590 872 1584 875 1580 876 1572 880 1568 881 1562 884 1556 886 1552 888 1544 891 1540 893 1532 896 1528 897 1521 900 1516 902 1511 904 1504 906 1500 908 1492 911 1488 912 1480 915 1476 917 1468 920 1464 921 1456 924 1452 925 1444 928 1440 929 1432 932 1428 934 1421 936 1416 938 1409 940 1404 942 1397 944 1392 946 1385 948 1380 950 1373 952 1368 954 1361 956 1356 958 1349 960 1344 962 1337 964 1332 966 1325 968 1320 970 1313 972 1308 973 1300 976 1296 977 1288 980 1284 981 1276 984 1272 985 1264 988 1260 989 1252 991 1248 993 1240 995 1236 996 1228 999 1224 1000 1216 1003 1212 1004 1204 1007 1200 1008 1192 1012 1188 1014 1184 1017 1180 1021 1176 1028 1174 1032 1172 1038 1170 1044 1168 1049 1165 1056 1164 1061 1162 1068 1160 1073 1158 1080 1156 1085 1154 1092 1152 1097 1151 1100 M359 0 360 8 360 14 360 20 361 28 362 36 363 44 364 50 365 56 367 64 368 69 370 76 372 82 374 88 376 92 380 100 382 104 385 108 388 112 392 118 396 122 400 126 404 130 408 133 412 136 417 140 424 144 428 147 432 149 439 152 444 154 448 156 456 159 460 161 468 164 472 165 480 168 484 169 492 171 496 173 504 175 508 176 516 179 521 180 528 182 534 184 540 186 547 188 552 190 559 192 564 194 571 196 576 198 582 200 588 202 592 204 600 207 604 209 612 212 616 213 622 216 628 218 632 220 640 223 644 225 652 228 656 229 663 232 668 234 674 236 680 238 687 240 692 241 700 243 704 244 712 246 720 247 724 248 732 249 740 250 748 251 756 252 764 252 768 252 776 252 784 252 792 252 800 252 804 252 812 252 820 251 828 251 836 250 844 249 852 249 860 248 864 248 872 247 880 246 888 245 896 245 902 244 908 243 916 243 924 242 932 241 940 240 945 240 952 239 960 239 968 238 976 238 984 237 992 237 1000 237 1008 237 1016 237 1024 237 1032 238 1040 239 1048 240 1052 241 1060 242 1066 244 1072 246 1077 248 1084 251 1088 253 1092 256 1097 260 1102 264 1105 268 1108 272 1112 277 1116 284 1118 288 1120 295 1122 300 1124 308 1125 312 1126 320 1127 328 1127 336 1127 344 1128 352 1127 360 1127 368 1126 376 1126 384 1125 392 1124 399 1123 404 1122 412 1121 420 1120 425 1119 432 1117 440 1116 447 1115 452 1113 460 1112 467 1111 472 1109 480 1108 484 1106 492 1104 500 1103 504 1101 512 1100 518 1098 524 1096 532 1095 536 1093 544 1092 550 1090 556 1089 564 1088 568 1086 576 1084 583 1083 588 1081 596 1080 600 1078 608 1077 616 1076 620 1074 628 1073 636 1072 644 1071 648 1070 656 1070 664 1069 672 1069 680 1069 688 1070 696 1070 704 1072 712 1072 716 1074 724 1076 732 1077 736 1080 744 1081 748 1084 756 1085 760 1087 768 1088 772 1090 780 1091 788 1092 795 1092 800 1092 806 1091 812 1090 820 1088 828 1087 832 1084 839 1082 844 1079 848 1076 854 1072 859 1068 864 1064 867 1060 871 1056 874 1052 876 1045 880 1040 882 1032 884 1028 885 1020 885 1012 884 1008 883 1000 881 996 879 989 876 984 874 980 871 974 868 968 865 964 863 959 860 952 857 948 855 940 852 936 851 928 849 924 848 916 847 908 846 900 845 892 845 884 846 876 846 868 847 862 848 856 849 848 850 840 852 836 853 828 854 821 856 816 857 808 859 804 860 796 863 792 864 784 866 779 868 772 870 767 872 760 874 755 876 748 879 744 880 736 883 732 885 724 888 720 890 714 892 708 895 704 896 696 900 692 902 687 904 680 907 676 909 671 912 664 915 660 917 655 920 648 924 644 926 640 928 633 932 628 935 624 937 620 940 613 944 608 947 604 950 600 953 595 956 589 960 584 963 580 966 576 969 572 972 567 976 561 980 556 984 552 987 548 991 544 994 540 997 536 1001 532 1004 528 1008 523 1012 519 1016 515 1020 510 1024 506 1028 502 1032 498 1036 495 1040 491 1044 487 1048 483 1052 480 1056 476 1060 472 1065 468 1070 464 1074 460 1079 456 1084 453 1088 450 1092 447 1096 444 1100 M0 614 4 608 7 604 10 600 12 596 16 590 20 584 22 580 25 576 28 570 32 564 34 560 36 556 40 548 42 544 44 539 47 532 49 528 52 521 54 516 56 510 58 504 60 498 62 492 64 485 65 480 67 472 68 468 69 460 71 452 72 444 72 439 72 432 72 424 72 416 72 412 71 404 69 396 68 392 65 384 64 380 60 372 58 368 56 364 52 359 48 354 44 349 40 345 36 341 32 338 28 335 24 332 19 328 13 324 8 321 4 319 0 317 M1576 1100 1577 1096 1580 1088 1581 1084 1583 1076 1584 1071 1585 1064 1587 1056 1588 1048 1588 1044 1589 1036 1589 1028 1589 1020 1588 1016 1586 1008 1584 1002 1581 996 1578 992 1574 988 1568 984 1564 982 1559 980 1552 978 1544 977 1536 977 1528 977 1520 977 1512 978 1504 979 1500 980 1492 982 1484 984 1480 984 1472 987 1467 988 1460 990 1453 992 1448 994 1441 996 1436 998 1430 1000 1424 1002 1419 1004 1412 1007 1408 1008 1400 1012 1396 1014 1391 1016 1384 1019 1380 1021 1374 1024 1368 1027 1364 1029 1358 1032 1352 1036 1348 1038 1344 1040 1338 1044 1332 1048 1328 1050 1324 1053 1319 1056 1314 1060 1308 1064 1304 1067 1300 1071 1296 1074 1292 1077 1288 1081 1284 1084 1280 1088 1276 1092 1272 1096 1268 1100 M327 0 327 8 327 16 327 24 327 32 328 40 328 48 328 52 329 60 329 68 330 76 331 84 332 90 333 96 335 104 336 109 338 116 340 122 343 128 344 132 348 139 351 144 354 148 357 152 361 156 364 160 369 164 373 168 379 172 384 175 388 178 392 180 400 184 404 186 408 188 416 191 420 193 428 196 432 197 440 200 444 201 452 204 456 205 464 208 468 209 476 211 480 212 488 215 492 216 500 219 504 220 512 223 516 224 524 227 528 228 536 231 540 233 548 236 552 238 557 240 564 243 568 245 576 248 580 250 585 252 592 255 596 257 603 260 608 262 612 264 620 268 624 269 631 272 636 274 641 276 648 278 653 280 660 282 668 284 672 285 680 287 686 288 692 289 700 290 708 291 716 292 724 292 728 292 736 292 744 292 752 292 756 292 764 292 772 291 780 290 788 290 796 289 804 288 808 288 816 287 824 286 832 285 840 284 844 284 852 283 860 282 868 281 875 280 880 280 888 279 896 278 904 277 912 277 920 276 924 276 932 275 940 275 948 275 956 275 964 275 972 275 980 276 984 276 992 277 1000 279 1007 280 1012 281 1020 284 1024 285 1031 288 1036 290 1040 293 1045 296 1050 300 1054 304 1058 308 1061 312 1064 317 1068 324 1070 328 1072 334 1074 340 1076 348 1077 352 1078 360 1078 368 1079 376 1078 384 1078 392 1078 400 1077 408 1076 413 1075 420 1074 428 1072 436 1071 440 1069 448 1068 454 1067 460 1064 468 1063 472 1061 480 1060 484 1057 492 1056 496 1053 504 1052 508 1049 516 1047 520 1044 528 1041 536 1039 540 1036 548 1034 552 1032 557 1029 564 1027 568 1024 574 1021 580 1019 584 1016 591 1013 596 1011 600 1008 606 1005 612 1003 616 1000 621 996 628 994 632 992 636 988 642 984 648 982 652 979 656 976 661 972 667 969 672 966 676 963 680 960 684 956 690 952 695 948 700 945 704 941 708 938 712 934 716 930 720 927 724 923 728 918 732 914 736 910 740 905 744 901 748 896 752 892 755 888 758 884 761 880 764 874 768 868 772 864 775 860 778 856 780 850 784 844 788 840 790 836 792 830 796 824 799 820 801 815 804 808 808 804 810 800 812 793 816 788 819 784 821 778 824 772 827 768 829 762 832 756 835 752 837 746 840 740 843 736 845 730 848 724 851 720 853 715 856 708 859 704 862 699 864 692 868 688 870 684 872 677 876 672 878 668 881 662 884 656 887 652 890 648 892 641 896 636 899 632 901 627 904 620 908 616 911 612 913 607 916 601 920 596 923 592 926 588 928 583 932 577 936 572 939 568 942 564 945 560 948 554 952 549 956 544 960 540 963 536 966 532 969 528 972 523 976 518 980 513 984 509 988 504 992 500 996 496 999 492 1003 488 1006 484 1010 480 1014 476 1018 472 1022 468 1025 464 1029 460 1033 456 1038 452 1042 448 1046 444 1050 440 1054 436 1059 432 1063 428 1068 424 1072 420 1077 416 1081 412 1086 408 1090 404 1095 400 1100 400 1100 M0 656 4 651 8 645 12 640 15 636 18 632 20 628 24 623 28 617 31 612 34 608 38 600 41 596 44 591 48 584 50 580 52 576 56 569 58 564 60 560 64 553 66 548 70 540 72 535 75 528 77 524 80 516 81 512 84 504 86 500 88 493 89 488 92 480 93 476 95 468 96 464 98 456 99 448 100 444 101 436 102 428 103 420 103 412 103 404 103 396 102 388 101 380 100 375 98 368 96 362 93 356 91 352 88 346 84 340 81 336 77 332 73 328 69 324 64 320 60 317 56 314 52 311 47 308 40 304 36 302 32 299 25 296 20 294 16 292 8 288 4 286 0 285 M296 0 296 8 296 12 296 20 296 28 295 36 295 44 295 52 294 60 294 68 294 76 294 84 294 92 294 100 294 108 294 116 295 124 295 132 296 138 297 144 298 152 300 158 302 164 304 170 307 176 309 180 312 185 316 190 320 195 324 199 328 202 332 205 336 208 343 212 348 215 352 217 360 220 364 222 370 224 376 226 381 228 388 230 394 232 400 234 407 236 412 237 420 240 424 241 432 243 436 244 444 247 449 248 456 250 462 252 468 254 474 256 480 258 485 260 492 263 496 264 504 267 508 269 515 272 520 274 524 276 532 280 536 282 541 284 548 288 552 290 557 292 564 296 568 298 572 300 580 304 584 306 589 308 596 311 600 313 606 316 612 318 616 320 624 323 628 324 636 327 641 328 648 330 656 331 660 332 668 333 676 334 684 335 692 335 700 336 708 336 716 335 724 335 732 335 740 334 748 333 756 332 760 332 768 331 776 330 784 328 788 328 796 327 804 325 812 324 816 324 824 322 832 321 840 320 844 320 852 319 860 318 868 317 875 316 880 316 888 315 896 315 904 314 912 314 920 314 928 314 936 315 944 316 948 316 956 317 964 319 968 320 976 323 980 324 988 328 992 330 996 333 1001 336 1005 340 1009 344 1012 348 1016 353 1020 360 1021 364 1024 371 1025 376 1027 384 1028 392 1028 396 1029 404 1028 412 1028 418 1027 424 1026 432 1025 440 1024 445 1023 452 1021 460 1019 464 1017 472 1016 476 1013 484 1012 488 1009 496 1007 500 1004 508 1003 512 1000 518 997 524 995 528 992 535 990 540 988 544 984 551 981 556 979 560 976 566 972 572 970 576 968 580 964 586 960 592 958 596 955 600 952 605 948 611 945 616 942 620 939 624 936 629 932 634 928 640 925 644 922 648 919 652 915 656 912 660 908 665 904 670 900 675 896 679 892 684 888 688 884 692 880 697 876 701 872 705 868 709 864 713 860 716 856 720 852 724 847 728 843 732 838 736 833 740 829 744 824 748 820 751 816 754 812 757 808 760 803 764 797 768 792 772 788 774 784 777 780 780 774 784 768 788 764 791 760 793 756 796 749 800 744 803 740 806 736 808 730 812 724 816 720 818 716 820 710 824 704 828 700 830 696 832 690 836 684 839 680 842 676 844 669 848 664 851 660 854 652 858 648 861 643 864 636 868 632 870 628 873 623 876 616 880 612 883 608 885 604 888 597 892 592 895 588 898 584 901 579 904 573 908 568 911 564 914 560 917 555 920 549 924 544 928 540 931 536 933 532 936 527 940 522 944 516 948 512 951 508 954 504 958 500 961 496 964 491 968 486 972 481 976 476 980 472 984 468 987 464 991 460 994 456 998 452 1001 448 1005 444 1008 440 1012 436 1016 432 1020 427 1024 423 1028 419 1032 415 1036 411 1040 407 1044 403 1048 399 1052 395 1056 391 1060 387 1064 383 1068 379 1072 375 1076 371 1080 367 1084 364 1088 360 1092 356 1096 352 1100 M0 705 3 700 6 696 9 692 12 688 16 683 20 677 23 672 26 668 29 664 32 659 36 653 39 648 42 644 44 640 48 634 51 628 54 624 58 616 61 612 64 606 67 600 69 596 72 591 76 584 78 580 80 575 84 568 85 564 88 559 91 552 93 548 96 541 98 536 100 531 103 524 105 520 108 512 109 508 112 501 114 496 116 489 118 484 120 477 122 472 124 464 125 460 127 452 129 448 131 440 132 434 133 428 135 420 136 413 137 408 138 400 139 392 139 384 140 376 139 368 139 360 138 352 136 345 135 340 132 333 130 328 127 324 124 319 120 314 116 310 112 306 108 302 104 299 99 296 93 292 88 289 84 287 77 284 72 282 68 280 60 276 56 275 49 272 44 270 38 268 32 266 28 264 20 261 16 260 8 257 4 255 0 254 M9 1100 8 1093 7 1088 5 1080 3 1076 1 1068 0 1066 M265 0 265 8 264 16 264 24 264 28 263 36 263 44 262 52 261 60 260 68 260 72 259 80 257 88 256 96 256 100 254 108 253 116 252 122 251 128 250 136 248 144 247 148 246 156 244 164 244 168 242 176 241 184 239 192 238 200 237 208 236 212 235 220 234 228 235 236 236 242 239 248 243 252 248 255 252 256 260 259 265 260 272 261 280 263 288 264 292 265 300 266 308 267 316 268 320 268 328 269 336 271 344 272 348 272 356 274 364 275 371 276 376 277 384 278 392 280 396 281 404 283 410 284 416 286 424 288 428 289 436 291 440 292 448 295 452 296 460 299 464 301 472 304 476 306 481 308 488 311 492 313 497 316 504 319 508 322 512 324 520 328 524 330 528 333 534 336 540 340 544 342 548 344 555 348 560 351 564 353 570 356 576 359 580 361 587 364 592 366 596 368 604 371 608 372 616 374 622 376 628 377 636 379 642 380 648 381 656 382 664 382 672 382 680 382 688 382 696 382 704 381 712 380 716 380 724 379 732 378 740 377 745 376 752 375 760 374 768 372 772 371 780 370 788 369 792 368 800 367 808 365 815 364 820 363 828 362 836 361 844 360 848 360 856 359 864 358 872 358 880 358 888 358 896 359 904 359 908 360 916 362 924 364 928 365 936 368 940 370 944 372 949 376 954 380 958 384 961 388 964 393 968 400 969 404 972 412 972 416 973 424 974 432 973 440 973 448 972 453 971 460 969 468 968 472 966 480 964 486 962 492 960 497 957 504 956 508 952 516 950 520 948 525 945 532 943 536 940 541 936 548 934 552 932 556 928 562 925 568 922 572 920 576 916 582 912 588 909 592 906 596 904 600 900 605 896 611 892 616 889 620 886 624 883 628 880 632 876 637 872 642 868 647 864 652 861 656 857 660 854 664 850 668 846 672 843 676 839 680 835 684 831 688 828 692 824 696 820 700 815 704 811 708 807 712 803 716 798 720 794 724 789 728 785 732 780 736 776 739 772 743 768 746 764 749 760 752 755 756 750 760 744 764 740 767 736 770 732 773 728 776 722 780 717 784 712 787 708 790 704 793 699 796 693 800 688 803 684 806 680 809 675 812 668 816 664 819 660 821 652 827 648 829 643 832 637 836 632 839 628 842 624 844 618 848 612 852 608 854 604 857 599 860 593 864 588 867 584 870 580 872 574 876 568 880 564 883 560 885 556 888 550 892 544 896 540 899 536 902 532 904 527 908 521 912 516 915 512 918 508 921 504 924 498 928 493 932 488 935 484 938 480 941 476 944 471 948 466 952 461 956 456 960 452 963 448 966 444 969 440 972 436 976 431 980 426 984 421 988 416 992 412 995 408 999 404 1002 400 1005 396 1009 392 1012 388 1016 383 1020 378 1024 374 1028 369 1032 364 1036 360 1040 356 1043 352 1047 348 1050 344 1054 340 1057 336 1061 332 1064 327 1068 323 1072 318 1076 313 1080 308 1084 304 1087 300 1091 296 1094 292 1097 288 1100 M0 787 3 780 5 776 8 770 11 764 13 760 16 754 19 748 21 744 24 738 27 732 30 728 32 723 36 716 38 712 40 708 44 702 47 696 49 692 52 687 56 680 58 676 60 672 64 665 67 660 69 656 72 650 75 644 77 640 80 634 83 628 85 624 88 619 91 612 93 608 96 602 99 596 101 592 104 586 107 580 108 576 112 568 114 564 116 559 119 552 121 548 124 541 126 536 128 531 131 524 133 520 136 512 138 508 140 502 142 496 144 491 147 484 148 480 151 472 153 468 156 460 157 456 160 448 161 444 164 436 165 432 168 424 169 420 172 412 173 408 176 400 177 396 180 388 181 384 183 376 184 372 187 364 188 359 190 352 192 344 193 340 195 332 196 328 198 320 200 312 200 308 201 300 202 292 202 284 200 278 196 272 192 269 188 267 180 264 176 263 168 261 163 260 156 259 148 257 141 256 136 255 128 254 120 252 116 251 108 250 100 248 96 248 88 246 80 244 76 244 68 242 60 240 56 239 48 237 44 236 36 234 30 232 24 230 17 228 12 226 5 224 0 222 M104 1100 102 1092 100 1084 99 1080 98 1072 96 1064 96 1060 94 1052 92 1044 92 1040 90 1032 88 1025 87 1020 84 1012 83 1008 80 1000 79 996 76 989 74 984 72 980 68 973 65 968 63 964 60 960 56 954 52 949 48 944 45 940 41 936 38 932 34 928 30 924 26 920 22 916 19 912 15 908 11 904 8 900 4 895 0 890 M231 0 231 8 231 16 231 24 230 32 229 40 228 48 228 52 226 60 225 68 224 72 222 80 220 88 219 92 217 100 215 104 213 112 211 116 208 124 206 128 204 133 200 140 198 144 196 148 192 154 188 160 184 165 180 170 176 174 172 178 168 181 164 184 158 188 152 192 148 194 143 196 136 198 131 200 124 202 116 203 111 204 104 205 96 205 88 205 80 205 72 205 65 204 60 203 52 202 44 201 40 200 32 198 24 196 20 195 12 192 8 191 1 188 0 188 M324 328 320 328 312 330 304 332 300 333 292 336 288 337 282 340 276 343 272 345 268 348 262 352 258 356 253 360 249 364 245 368 242 372 238 376 235 380 232 384 228 390 224 396 221 400 219 404 216 409 212 416 210 420 208 424 204 432 202 436 200 440 196 448 194 452 192 456 189 464 187 468 184 474 181 480 180 484 176 492 174 496 172 501 169 508 167 512 164 520 161 528 159 532 156 539 154 544 152 548 149 556 147 560 144 567 142 572 140 577 137 584 135 588 132 595 130 600 128 605 125 612 123 616 120 624 118 628 116 634 113 640 112 644 108 652 107 656 104 663 102 668 100 673 97 680 96 684 93 692 92 696 89 704 88 708 85 716 84 720 82 728 80 735 79 740 77 748 76 755 75 760 75 768 74 776 75 784 76 792 76 796 78 804 80 810 82 816 84 821 88 828 90 832 92 836 96 842 100 848 103 852 106 856 109 860 112 864 116 869 120 874 124 880 127 884 130 888 133 892 136 897 140 904 143 908 145 912 148 917 152 924 154 928 156 933 159 940 161 944 164 951 166 956 168 960 171 968 173 972 176 980 178 984 180 989 183 996 185 1000 188 1006 192 1012 194 1016 197 1020 200 1024 204 1028 209 1032 216 1036 220 1038 228 1040 232 1041 240 1041 248 1040 252 1040 260 1038 268 1036 276 1033 280 1032 288 1028 292 1026 297 1024 304 1020 308 1018 312 1016 319 1012 324 1009 328 1007 333 1004 339 1000 344 997 348 994 352 992 358 988 364 984 368 981 372 979 376 976 382 972 388 968 392 965 396 962 400 960 405 956 411 952 416 949 420 946 424 943 428 940 434 936 440 932 444 929 448 927 452 924 458 920 464 916 468 913 472 910 476 908 481 904 487 900 492 897 496 894 500 892 506 888 512 884 516 881 520 879 524 876 530 872 536 868 540 866 544 863 549 860 555 856 560 853 564 850 568 847 573 844 580 840 584 837 588 835 592 832 598 828 604 824 608 822 612 819 616 816 623 812 628 808 632 806 636 803 640 800 646 796 652 792 656 789 660 787 664 784 669 780 675 776 680 772 684 769 688 766 692 763 696 760 702 756 707 752 712 748 716 745 720 741 724 738 728 735 732 731 736 728 740 724 745 720 749 716 754 712 758 708 762 704 766 700 770 696 774 692 778 688 782 684 786 680 790 676 793 672 797 668 801 664 804 660 808 655 812 651 816 646 820 641 824 636 828 631 832 626 836 620 839 616 842 612 845 608 848 604 852 598 856 592 859 588 861 584 864 580 868 573 871 568 874 564 876 560 880 552 882 548 884 544 888 537 890 532 892 528 895 520 897 516 900 508 901 504 903 496 904 492 906 484 907 476 907 468 906 460 905 452 904 448 900 440 898 436 895 432 890 428 885 424 880 421 876 419 868 416 864 415 856 414 848 413 840 412 832 412 824 413 816 413 808 414 800 415 792 416 788 416 780 417 772 419 764 420 760 421 752 422 744 423 740 424 732 425 724 426 716 428 712 428 704 429 696 430 688 431 680 432 673 432 668 432 660 432 652 432 644 432 639 432 632 432 624 431 616 430 608 428 604 427 596 425 591 424 584 422 579 420 572 417 568 416 560 412 556 410 551 408 544 404 540 402 536 400 530 396 524 392 520 390 516 387 511 384 505 380 500 377 496 374 488 370 484 367 479 364 472 360 468 358 464 356 457 352 452 350 444 346 439 344 432 341 428 340 420 337 416 336 408 334 400 332 396 331 388 330 380 328 376 328 368 327 360 326 352 326 344 326 336 327 328 327 324 328 M193 0 193 8 193 16 193 24 192 32 192 36 191 44 189 52 188 57 186 64 184 71 182 76 180 83 178 88 176 92 172 100 170 104 167 108 164 113 160 119 156 124 152 128 148 132 144 136 140 139 136 142 132 145 128 148 120 152 116 154 111 156 104 158 98 160 92 161 84 162 76 163 68 163 60 163 52 162 44 161 39 160 32 158 25 156 20 154 14 152 8 149 4 147 0 145 M344 384 340 384 332 386 324 387 320 389 312 391 308 393 301 396 296 399 292 401 287 404 281 408 276 412 272 416 268 419 264 423 260 427 256 432 252 436 249 440 246 444 243 448 240 452 236 458 232 464 229 468 227 472 224 477 220 484 218 488 216 492 212 499 210 504 208 508 204 515 202 520 200 524 196 532 194 536 192 542 189 548 188 552 184 560 183 564 180 571 178 576 176 581 173 588 172 592 169 600 168 604 165 612 164 616 161 624 160 628 158 636 156 641 154 648 152 656 151 660 150 668 148 676 148 680 147 688 146 696 145 704 145 712 146 720 147 728 148 736 149 740 151 748 152 752 155 760 157 764 160 770 163 776 166 780 168 784 172 790 176 796 179 800 182 804 185 808 188 812 192 818 196 823 200 828 203 832 206 836 208 840 212 845 216 851 219 856 222 860 225 864 228 869 232 875 235 880 238 884 241 888 244 892 248 898 252 903 256 908 260 912 264 916 268 919 272 922 276 925 281 928 288 931 292 932 300 934 308 935 316 935 324 935 332 933 338 932 344 931 352 928 356 927 364 924 368 923 374 920 380 918 384 916 392 912 396 910 401 908 408 904 412 902 417 900 424 896 428 894 432 892 439 888 444 885 448 883 453 880 460 876 464 874 468 872 474 868 480 865 484 862 492 858 496 855 501 852 508 848 512 846 516 843 521 840 528 836 532 833 536 831 541 828 547 824 552 821 556 818 560 816 566 812 572 808 576 805 580 803 584 800 590 796 596 792 602 788 608 784 612 781 616 778 620 775 625 772 630 768 636 764 640 761 644 758 648 755 652 751 656 748 661 744 666 740 671 736 676 732 680 728 684 725 688 721 692 718 696 714 700 710 704 707 708 703 712 699 716 695 720 691 724 686 728 682 732 678 736 673 740 669 744 664 747 660 751 656 754 652 757 648 763 640 766 636 769 632 772 627 776 622 780 616 782 612 785 608 788 603 792 596 794 592 796 588 800 580 802 576 804 572 807 564 809 560 811 552 812 548 814 540 815 532 815 524 815 516 812 508 810 504 807 500 802 496 796 492 792 490 787 488 780 486 772 485 764 484 760 484 752 484 744 484 736 484 730 484 724 484 716 485 708 485 700 486 692 486 684 487 676 487 668 488 660 488 656 488 648 488 640 488 633 488 628 488 620 487 612 487 604 486 596 485 590 484 584 483 576 481 571 480 564 478 557 476 552 474 546 472 540 470 536 468 528 464 524 462 520 460 513 456 508 453 504 450 500 448 494 444 488 440 484 437 480 434 476 431 471 428 465 424 460 420 456 418 452 415 447 412 440 408 436 406 432 404 425 400 420 398 416 396 408 393 404 391 396 389 392 388 384 386 376 385 370 384 364 383 356 383 348 384 344 384 M11 0 8 6 5 12 4 16 1 24 0 29 M137 0 140 8 140 12 141 20 141 28 141 36 140 41 138 48 136 55 134 60 132 65 128 72 124 78 120 83 116 87 112 91 108 94 104 97 99 100 92 104 88 105 80 108 76 108 68 109 60 109 52 108 48 107 40 105 36 103 31 100 25 96 20 92 16 88 13 84 10 80 7 76 4 69 2 64 0 56 0 55 M328 460 324 461 316 464 308 468 301 472 296 476 292 479 288 482 284 486 280 490 276 494 272 499 268 504 265 508 262 512 259 516 256 521 252 528 250 532 248 536 244 543 242 548 240 552 236 560 235 564 232 571 230 576 228 582 226 588 224 596 222 604 220 612 220 616 218 624 218 632 217 640 217 648 217 656 218 664 219 672 220 676 222 684 224 689 227 696 229 700 232 707 235 712 237 716 240 720 244 726 248 732 251 736 254 740 257 744 260 748 264 753 268 758 272 763 276 768 279 772 282 776 286 780 289 784 292 788 296 793 300 798 304 802 308 807 312 811 316 815 320 819 324 822 328 825 332 828 338 832 344 835 348 837 356 840 360 841 368 843 376 843 384 844 392 843 400 842 408 841 412 840 420 838 426 836 432 834 438 832 444 830 449 828 456 825 460 823 468 820 472 818 477 816 484 812 488 810 493 808 500 804 504 802 508 800 515 796 520 793 524 791 529 788 535 784 540 781 544 779 548 776 554 772 560 768 564 765 568 763 572 760 578 756 583 752 588 748 592 745 596 742 600 739 604 736 609 732 613 728 618 724 623 720 627 716 631 712 635 708 639 704 643 700 647 696 651 692 654 688 658 684 661 680 664 676 668 671 672 666 676 660 679 656 681 652 684 647 688 640 690 636 692 631 694 624 696 619 697 612 698 604 698 596 696 590 693 584 690 580 686 576 680 572 676 570 672 568 664 565 660 564 652 562 644 560 640 560 632 558 624 557 616 556 612 556 604 555 596 554 588 553 580 552 576 552 568 550 560 549 554 548 548 547 540 545 536 544 528 542 521 540 516 538 510 536 504 534 500 532 492 529 488 527 483 524 476 520 472 518 468 515 463 512 457 508 452 505 448 502 444 499 440 496 434 492 429 488 424 485 420 482 416 479 411 476 404 472 400 470 396 468 388 464 384 463 376 460 372 459 364 457 356 457 348 457 340 457 332 459 328 460"/></g></svg>
