<svg width="30" height="24" viewBox="0 0 30 24" fill="none" xmlns="http://www.w3.org/2000/svg">
<g clip-path="url(#clip0_425_140)">
<path d="M22.5142 17.8006C22.6021 17.8654 22.6949 18.1819 22.8423 18.3218C23.3053 18.7612 25.2767 19.5896 25.9306 19.7851C26.2027 19.8666 26.7894 19.8763 26.9499 19.9748C27.0383 20.0289 27.2616 20.3756 27.2621 20.4892C27.2621 20.5638 27.0084 21.4732 26.9741 21.5166L26.0345 21.8185C25.9161 21.795 25.6754 21.4113 25.5681 21.3196C24.9534 20.7959 22.9071 20.0402 22.0942 19.8558C21.9115 19.8144 21.3745 19.7846 21.2871 19.7198C21.1923 19.6496 20.9763 19.1156 20.9802 18.9816C20.984 18.8367 21.2378 18.1292 21.3281 18.0122C21.3939 17.9269 21.8308 17.6504 21.9289 17.6397C22.0052 17.6314 22.461 17.7606 22.5142 17.8001V17.8006Z" fill="currentColor"/>
<path d="M8.87686 14.6555C8.79276 14.5707 8.56851 13.8188 8.60959 13.7081C8.98608 13.1864 9.44377 12.7217 9.828 12.2072C10.2021 11.706 10.5186 11.3759 10.4587 10.6962C10.4432 10.5206 10.2722 9.96182 10.333 9.84625L11.1015 9.3172C11.3112 9.47421 11.4543 9.71557 11.6863 9.84723C11.9183 9.97888 12.3948 10.0613 12.5601 10.2319C12.6616 10.3368 12.825 10.7985 12.8235 10.9429C12.8201 11.3164 12.1556 11.6231 11.9275 11.8406C11.5877 12.1648 10.6578 13.4433 10.4626 13.87C10.2606 14.3113 10.3659 14.7316 9.79416 14.852C9.56266 14.9008 9.04601 14.8252 8.87637 14.655L8.87686 14.6555Z" fill="currentColor"/>
<path d="M26.4743 14.0972C26.6295 14.2552 26.8416 14.9915 26.8204 15.2231C26.7633 15.8472 26.2539 15.6927 25.8088 15.8107C25.1999 15.9721 23.5745 16.6898 23.1304 17.1028C23.0434 17.1838 22.9941 17.312 22.9177 17.3754C22.6166 17.627 22.2744 17.3851 21.9603 17.2876L21.6718 16.3563L21.9786 15.8428C22.547 15.6439 23.1178 15.4508 23.6717 15.2129C24.0544 15.048 24.9901 14.6453 25.2583 14.3781C25.3502 14.2869 25.542 13.9173 25.602 13.8968C25.7581 13.8441 26.3617 13.9821 26.4748 14.0972H26.4743Z" fill="currentColor"/>
<path d="M26.7769 17.2988C27.0765 16.8278 27.2776 16.3324 27.352 15.7726C28.6042 15.229 29.0329 13.8661 28.9131 12.5861C28.9087 12.5403 28.87 12.4335 28.973 12.4769C29.1919 12.5691 29.6994 13.4487 29.7936 13.6954C30.5814 15.757 29.016 18.0615 26.7769 17.2988Z" fill="currentColor"/>
<path d="M28.7042 22.9438C28.2354 23.3334 27.6999 23.1564 27.1393 23.194C26.3636 23.2456 25.3086 23.3617 24.5662 23.5694C24.3226 23.6377 23.6015 23.9995 23.4696 24C23.3246 24 22.8925 23.7084 22.8403 23.5821C22.82 23.5324 22.8722 23.2432 22.8655 23.1213C22.8592 23.0057 22.7852 22.8697 22.7906 22.7785C22.7925 22.7478 23.0129 22.2241 23.0428 22.2173C23.5725 22.2339 24.1003 22.2509 24.6305 22.266C25.1447 22.2807 26.5874 22.3377 26.9948 22.0734C27.0823 22.0164 27.1828 21.8404 27.2606 21.8062C27.3868 21.7516 28.2035 21.8404 28.2988 21.9262C28.3606 21.9818 28.7361 22.899 28.7047 22.9438H28.7042Z" fill="currentColor"/>
<path d="M16.4448 17.153L14.701 11.3125L13.4551 11.3027L13.255 10.2597L14.6807 10.0866L15.2274 10.367L17.1528 16.6917C17.1466 16.7522 16.5042 17.1984 16.4443 17.153H16.4448Z" fill="currentColor"/>
<path d="M16.7271 11.1682L15.8147 11.1389L15.575 10.0408C16.1501 10.1057 16.8837 9.75509 17.3356 10.2378L18.8092 15.4781C18.902 15.6561 18.2892 16.0179 18.1978 16.0262C18.1282 16.0325 18.121 16.0028 18.0959 15.9487L16.7267 11.1677L16.7271 11.1682Z" fill="currentColor"/>
<path d="M10.0633 15.6512C10.0788 15.6609 10.1107 15.7853 10.146 15.8345C10.5007 16.328 10.955 16.6966 11.4282 17.075C11.5988 17.2115 12.621 17.9122 12.6548 17.981C12.7558 18.1867 12.5171 18.8338 12.3112 18.9503C12.2097 19.0079 11.6519 19.0888 11.5659 19.0303C11.4224 18.5281 11.0154 18.2409 10.6244 17.9346C10.2958 17.6772 9.82748 17.3281 9.4447 17.1759C9.30406 17.1203 9.2103 17.2062 9.08271 17.054C9.02617 16.9862 8.85894 16.581 8.86426 16.4991C8.88069 16.247 9.23737 15.6434 9.51913 15.5951C9.57616 15.5853 10.0396 15.6365 10.0633 15.6507V15.6512Z" fill="currentColor"/>
<path d="M12.9544 11.607C13.1202 11.5612 13.6325 11.7752 13.6528 12.0049C14.1162 13.6847 14.8731 15.3816 15.3086 17.056C15.3347 17.1565 15.4018 17.2984 15.3593 17.3949L14.7779 17.883L13.0399 12.7685C12.9094 12.4852 12.5518 12.4189 12.3396 12.2068C12.3222 12.1341 12.879 11.6275 12.9539 11.6065L12.9544 11.607Z" fill="currentColor"/>
<path d="M12.8124 20.7472C12.7737 20.7745 12.1846 20.9388 12.0333 21.0086C11.5698 21.2216 10.6443 21.8229 10.3355 22.2183C10.247 22.3319 10.2132 22.4719 10.1422 22.5591C9.99717 22.7371 9.66756 22.6406 9.45104 22.6503C9.27125 22.2505 8.94889 21.9594 9.21567 21.5025C9.97881 21.0237 10.8758 20.4917 11.5205 19.8583C11.8168 19.5677 11.855 19.18 12.39 19.32C12.7626 19.4175 12.9733 19.9938 12.9695 20.3454C12.969 20.4098 12.8429 20.7257 12.8124 20.7472Z" fill="currentColor"/>
<path d="M20.5867 14.4644L19.9212 14.8637L18.9445 11.3427C18.828 11.1121 18.1451 11.195 17.8952 11.1106L17.7961 9.99207L19.3079 10.1481C19.5177 10.2271 19.7371 11.194 19.8105 11.4432C20.0541 12.2668 20.4413 13.4034 20.5848 14.2182C20.5969 14.2879 20.6206 14.4064 20.5867 14.4644Z" fill="currentColor"/>
<path d="M13.7402 17.6397L12.6818 17.1247C12.1903 15.8955 11.7954 14.6102 11.3484 13.357L11.9303 12.5256L13.7407 17.6397H13.7402Z" fill="currentColor"/>
<path d="M19.6791 23.8269C19.8183 23.2423 20.1097 22.7395 20.5432 22.3309L20.404 21.9755L22.5765 22.171L22.4344 22.6362C22.2338 22.7161 22.0366 22.5991 21.8351 22.6123C21.2783 22.6484 20.8989 23.3227 20.838 23.8269H19.6791Z" fill="currentColor"/>
<path d="M29.5694 22.5035L29.0938 22.5382L28.5124 21.4669L27.453 21.2445L27.7009 20.6185C28.3229 20.5443 28.8821 20.6921 29.4592 20.9013C29.5331 20.9564 29.8516 21.7112 29.8545 21.8136C29.8598 21.9789 29.6124 22.3236 29.5694 22.5035Z" fill="currentColor"/>
<path d="M7.94692 22.0242L7.89859 22.6093C7.30027 22.5981 6.66424 22.8766 6.25537 23.3144C6.16789 23.408 5.92527 23.8035 5.88033 23.8249C5.77497 23.8761 5.18244 23.9205 5.11768 23.8293C5.11913 23.153 5.78753 22.6323 6.40133 22.5113L6.01517 21.9277L7.94692 22.0242Z" fill="currentColor"/>
<path d="M20.9975 17.8006C20.9183 17.9137 20.7438 18.7007 20.6215 18.7105L19.928 18.1917C19.9898 17.884 20.0681 17.5817 20.1083 17.2686C20.13 17.098 20.0889 16.9107 20.1247 16.7493C20.145 16.6576 20.3572 16.4007 20.4379 16.3817C20.4973 16.3675 21.028 16.4738 21.1198 16.5045C21.5383 16.6455 21.5712 16.8936 21.6389 17.2993C21.5862 17.4017 21.0889 17.6724 20.9985 17.8011H20.9975V17.8006Z" fill="currentColor"/>
<path d="M9.39008 15.2094C9.44517 15.3815 9.24799 15.3918 9.13055 15.4981C8.80915 15.7897 8.71974 16.0174 8.55252 16.4114L8.0175 16.2783L7.55981 14.8891C7.56416 14.8501 7.9711 14.261 8.00494 14.2415C8.3157 14.0611 8.44039 14.5156 8.55348 14.6657C8.7294 14.8998 9.13006 15.0719 9.39008 15.2099V15.2094Z" fill="currentColor"/>
<path d="M27.1157 14.815C27.0746 14.7838 26.8721 13.9836 26.7518 13.8422C26.6315 13.7008 26.0597 13.4999 25.8596 13.4507L26.1032 12.7207C26.4062 12.865 26.8895 12.8231 27.1766 12.9265C27.3728 12.9972 27.6382 14.0221 27.7836 14.2479L27.1157 14.815Z" fill="currentColor"/>
<path d="M19.1963 23.8269H18.1824C18.3361 23.0165 18.8822 22.2719 19.6526 21.973L20.1127 22.3412C19.6912 22.7454 19.408 23.2837 19.1963 23.8269Z" fill="currentColor"/>
<path d="M23.7818 11.1633L23.4928 12.2326C23.2739 12.2141 22.1053 11.9147 22.0531 11.7625C22.0231 11.6757 22.1473 10.7069 22.1908 10.6742L23.7818 11.1633Z" fill="currentColor"/>
<path d="M21.6525 10.5835C21.6873 10.9443 21.5597 11.2954 21.5138 11.6489L20.0677 11.4032L19.9691 10.2358L21.6525 10.5835Z" fill="currentColor"/>
<path d="M4.71172 23.8269H3.69775C3.7282 23.2437 4.11678 22.6469 4.57108 22.2968C4.99494 21.9696 5.23079 21.8487 5.62806 22.2924C5.17327 22.6966 4.80307 23.2047 4.71172 23.8269Z" fill="currentColor"/>
<path d="M25.8093 12.2838C25.8726 12.3759 25.3414 13.0673 25.2568 13.2005C24.92 12.9479 24.3709 12.765 24.0539 12.5202C23.835 12.3515 24.2139 11.6616 24.2182 11.4046L25.8093 12.2838Z" fill="currentColor"/>
<path d="M13.7306 18.3325C13.7103 18.5554 13.934 18.7928 13.9355 18.9791C13.9369 19.2014 13.7064 19.5969 13.6934 19.847L13.2395 19.9826C13.1168 19.5725 12.9065 19.2999 12.6383 18.9796C12.8887 18.767 12.9834 18.5622 13.0612 18.2452L13.7306 18.333V18.3325Z" fill="currentColor"/>
<path d="M9.28716 23.5719C9.21757 23.6426 8.90439 23.7021 8.80193 23.6713C8.6811 23.6352 8.54385 23.351 8.4554 23.2388C8.41142 23.1832 8.30751 23.1564 8.29495 23.1345C8.25918 23.073 8.33361 22.0769 8.37807 22.0452C8.43704 22.0037 8.70189 22.0071 8.7681 22.0476C8.82851 22.0847 8.97447 22.4713 9.05711 22.584C9.15764 22.7205 9.5032 22.9268 9.48483 23.0594C9.48048 23.0896 9.3065 23.5519 9.28716 23.5714V23.5719Z" fill="currentColor"/>
<path d="M21.4088 9.22111L21.5436 10.0374L21.4905 10.1368L20.1624 9.84573L20.6292 9.0719L21.4088 9.22111Z" fill="currentColor"/>
<path d="M16.9272 9.60244L15.575 9.62633L15.8398 8.82178C16.0017 8.74035 16.5512 8.65794 16.6633 8.77302L16.9272 9.60244Z" fill="currentColor"/>
<path d="M19.2442 9.74874C18.8271 9.65122 18.3858 9.68194 17.9663 9.601C17.9059 9.5893 17.8788 9.63708 17.8938 9.53078L18.2795 8.79596L19.0769 8.9203L19.2447 9.74923H19.2442V9.74874Z" fill="currentColor"/>
<path d="M25.7146 11.7947C25.6441 11.8649 24.6465 11.2413 24.5088 11.1369L25.1313 10.5981L25.8548 10.9994L25.7146 11.7952V11.7947Z" fill="currentColor"/>
<path d="M23.6867 10.723C23.6432 10.7673 22.6263 10.4353 22.4987 10.3865C22.4485 10.367 22.4151 10.4119 22.4306 10.3085L22.8984 9.65607L23.6867 9.91889V10.7225V10.723Z" fill="currentColor"/>
<path d="M14.3159 8.87591C14.356 9.12947 14.5377 9.34304 14.6184 9.57075C14.6363 9.62098 14.6866 9.61854 14.6112 9.67705L13.3063 9.84576L13.5083 8.97782L14.3159 8.87543V8.87591Z" fill="currentColor"/>
<path d="M21.2242 23.8264C21.303 23.6743 21.377 23.1389 21.5133 23.0711C21.6181 23.0189 22.419 23.0848 22.4586 23.1418L22.4344 23.8542L21.2242 23.8264Z" fill="currentColor"/>
<path d="M6.71553 23.8756L6.66382 23.7762C6.8929 23.2817 7.41439 23.0316 7.94698 23.096L8.04316 23.8756H6.71553Z" fill="currentColor"/>
<path d="M9.31425 7.70955C9.2403 7.73734 9.16684 7.66518 9.19294 7.59008C9.25625 7.40674 9.49839 7.14344 9.56991 7.06103C9.88696 6.69338 10.2562 6.34864 10.5786 5.98245L13.6219 2.5219C13.5765 2.44437 13.5137 2.54092 13.4726 2.56725C12.1333 3.42202 10.6786 4.65664 9.46552 5.69915C8.95419 6.13848 8.48683 6.73385 8.0161 7.22779C7.99097 7.25412 7.98323 7.29264 7.99628 7.32678L8.94935 9.84527C9.06583 10.1534 9.0378 10.4987 8.87299 10.7834C8.46847 11.4836 8.14031 12.0361 7.74255 12.7392C7.7295 12.7626 7.70678 12.7792 7.68117 12.785L3.70698 13.6652C3.65091 13.6774 3.61902 13.7373 3.63932 13.7915L3.86115 14.3742C3.87082 14.3995 3.86937 14.4278 3.8568 14.4522C3.83747 14.4887 3.79687 14.5087 3.75627 14.5014L2.49679 14.2625C2.42816 14.2493 2.37016 14.3137 2.3895 14.3815L2.53304 14.8896C2.55624 14.9715 2.46876 15.0402 2.39578 14.9978C1.71964 14.6043 1.10633 14.1152 0.517668 13.6003C0.483354 13.5706 0.475621 13.5204 0.497853 13.4809C0.633661 13.2405 1.30932 12.6987 0.909143 12.6339C0.783484 12.6134 0.382344 12.7368 0.204972 12.7743C0.158575 12.7841 0.112661 12.7577 0.0971957 12.7129L0.00536833 12.4457C-0.00429771 12.4179 -0.000431299 12.3872 0.0155177 12.3623C1.0812 10.7249 2.25031 9.15286 3.53927 7.69151C3.55232 7.67688 3.56972 7.66615 3.58905 7.66176L7.21913 6.82991C7.24426 6.82405 7.26601 6.80845 7.27906 6.78553C7.85129 5.80252 8.46364 4.73807 9.14557 3.83161C9.65449 3.1553 10.5641 2.85689 11.2856 2.42584C12.5949 1.64323 13.8805 0.807477 15.1752 0L15.1893 0.0414466C15.196 0.0614384 15.196 0.0833807 15.1893 0.103373C14.7335 1.40918 14.4372 2.77936 13.9723 4.08078C13.5422 5.28517 13.1821 5.6694 12.1179 6.35156C11.2557 6.90402 10.2746 7.35067 9.31425 7.71004V7.70955ZM2.51129 11.2384C2.47117 11.293 2.49872 11.371 2.56445 11.3871C2.77566 11.4373 2.98202 11.4997 3.1826 11.586C3.38317 11.6723 3.74323 11.9468 3.90417 11.9766C4.12455 12.0176 5.29897 11.7659 5.53918 11.6182C5.55561 11.608 5.56817 11.5919 5.57494 11.5733L6.13702 10.1183C6.15055 10.0827 6.14185 10.0423 6.11479 10.0159L5.29269 9.21771C5.28061 9.20601 5.26611 9.19724 5.24968 9.19382C5.18153 9.17968 5.11242 9.18846 5.04379 9.19138C4.81519 9.20162 3.84907 9.34303 3.66541 9.41958C3.6079 9.44348 3.56102 9.4703 3.52961 9.52686C3.24397 10.13 2.9047 10.703 2.51129 11.2388V11.2384Z" fill="currentColor"/>
</g>
<defs>
<clipPath id="clip0_425_140">
<rect width="30" height="24" fill="currentColor"/>
</clipPath>
</defs>
</svg>
