<svg width="49" height="21" viewBox="0 0 49 21" fill="none" xmlns="http://www.w3.org/2000/svg">
<g clip-path="url(#clip0_420_412)">
<mask id="mask0_420_412" style="mask-type:luminance" maskUnits="userSpaceOnUse" x="0" y="0" width="49" height="21">
<path d="M49 0H0V21H49V0Z" fill="white"/>
</mask>
<g mask="url(#mask0_420_412)">
<path d="M35.0578 16.4081L36.1546 16.393L37.211 16.3878L38.333 16.3977L39.3654 16.418L40.4757 16.45L41.5344 16.4959L42.6792 16.5551L43.7637 16.6237L44.9056 16.7225L45.7447 16.8061L46.4802 16.8997C47.0418 16.9711 48.3576 17.1175 48.6252 17.6759C48.5462 18.0292 48.196 18.0158 47.8845 17.9966L46.8632 17.9345L45.9239 17.8804L44.84 17.8212L43.7567 17.7695L42.6722 17.7282L41.5285 17.6904L40.5043 17.6614L39.4193 17.655L38.3348 17.6527L37.2538 17.6596L36.1171 17.6777L35.1457 17.7026L34.0207 17.7369L33.0399 17.7741L31.8933 17.8218L30.8644 17.8769L29.8403 17.9356L28.8799 18.0013L27.7122 18.1024L26.7167 18.1983L25.6937 18.3203L24.6889 18.4533L23.742 18.5788L22.6311 18.7438L21.6509 18.9083C21.3844 18.953 21.0981 18.9774 20.8351 19.057C20.0768 19.2854 20.3971 18.433 19.7044 18.5945C19.4959 18.6433 19.2429 18.6276 19.0321 18.652L17.9037 18.7822L16.9234 18.8996L15.9086 19.0262L14.8704 19.1755L13.9246 19.3237L12.8846 19.4922L11.8833 19.681L10.9282 19.8734L9.93564 20.075L8.97938 20.2812L8.08285 20.5061L7.20974 20.7443L6.41744 20.9831L5.80726 19.9053C6.15217 19.6415 6.49415 19.6003 6.87068 19.5108L7.83339 19.2819L8.90559 19.0396L9.81618 18.8635L10.7484 18.702L11.44 18.5829L12.3728 18.4283L13.3666 18.2709L14.3556 18.1268L15.4056 17.9763L16.4134 17.8421L17.3936 17.7299L18.5203 17.6074L19.1984 17.5469L19.8303 17.4952C21.5349 17.3552 20.92 17.5254 22.206 16.5412L23.0287 15.9108L23.6055 15.457C23.3215 15.17 23.0117 14.9079 22.9175 14.514C22.8413 14.1973 22.7927 13.8191 22.7998 13.4908L22.8127 12.9028C22.4197 13.5286 22.1299 14.1311 21.8043 14.7644L21.378 15.5929C21.3422 15.6627 21.2948 15.7626 21.2503 15.7963C21.197 15.837 21.043 15.7568 20.9739 15.7295L20.0944 15.382C20.1758 14.9788 20.3649 14.6598 20.5388 14.3065L21.1338 13.098L21.3979 12.6088L20.6278 12.7355L20.3766 12.7395C20.3122 12.7407 20.2888 12.8894 20.256 12.9743L19.9568 13.7557L19.5375 14.9189C19.4004 15.2989 19.2681 15.7039 19.1346 16.1031C19.1077 16.1838 18.9408 16.3698 18.8459 16.3401L17.9599 16.0647C18.0243 15.5221 18.2023 14.8864 18.3546 14.3896L18.7241 13.1817C18.3388 13.0881 17.9669 13.3473 17.4762 13.3601L16.9662 13.9603C16.8297 14.1206 16.6845 14.2397 16.558 14.3972L16.0808 14.9898C15.8278 15.3036 15.6111 15.5709 15.3242 15.8835C15.0449 15.7103 14.8464 15.5476 14.6145 15.2931L15.0226 14.0526L14.6654 14.3141C14.3796 14.5233 14.1255 14.7377 13.8368 14.9317L13.048 15.4616L12.2469 15.9857L11.4699 16.4651L10.5253 17.0211L9.71487 17.4755L8.86402 17.9333L7.2519 18.7305L6.2851 19.2011L5.41199 19.6003L4.56582 19.9593L3.62947 20.3388L2.71362 20.6827C1.88501 20.9936 0.81105 21.2818 0.17569 20.5049C-0.10012 20.1679 -0.0521023 19.3708 0.29515 18.8275C0.920554 17.8491 1.31934 17.5266 2.25686 16.8625C2.56371 16.6452 2.84713 16.4209 3.16335 16.2268L3.9492 15.7452L4.80006 15.2693L5.67082 14.8161L6.48361 14.428C6.7319 14.3095 6.97785 14.2049 7.22379 14.1102L8.09456 13.7743C8.64149 13.5634 8.94483 13.4652 9.60595 13.3763C9.45897 13.5501 9.25226 13.6448 9.05023 13.7732L8.17185 14.3333L7.35965 14.8486L6.56794 15.3541L5.72177 15.8986L4.93533 16.4314L4.15474 16.9758L3.34488 17.5446C2.78037 17.9409 1.68943 18.9001 1.38141 19.602C1.78898 19.552 2.41497 19.3423 2.80497 19.2017L3.34663 19.007L4.3515 18.5963L5.19298 18.2378L6.06316 17.8386L6.99776 17.3871L7.8369 16.9682L8.63388 16.5609L9.52397 16.0705L10.3268 15.6162L11.2274 15.0793L12.0344 14.5703L12.7611 14.0892L13.7132 13.424C14.187 13.0928 14.6841 12.6518 15.1023 12.2416C15.3658 11.983 15.5713 11.685 15.8237 11.4078C16.0298 11.1818 16.2658 10.8605 16.1909 10.5258C16.1405 10.3021 15.7973 10.1801 15.5871 10.1528C15.2703 10.1121 14.9816 10.043 14.6824 10.0256L13.5715 9.96164L12.4507 9.94711L11.4371 9.95757L10.6079 9.98895L9.63699 10.0383L9.00163 10.0738L8.29248 10.1185L7.22848 10.1859L6.14397 10.2492L4.98276 10.2748C4.14127 10.2934 3.04389 9.98953 2.94375 9.08023C2.88344 8.53174 3.03862 8.12386 3.38528 7.73573C4.06866 6.96994 4.66479 6.46445 5.54082 5.91422L6.38406 5.38432C6.67568 5.20072 6.96145 5.04036 7.2642 4.88638L8.45762 4.27979L11.3703 2.9016L12.0882 2.58843L12.9549 2.23517L13.8643 1.88946L14.7486 1.56989L15.6955 1.25672L16.6224 0.970854L17.557 0.714622L18.5168 0.47524C18.8699 0.386924 19.2359 0.303256 19.6036 0.243411L20.1892 0.148123C20.4311 0.108613 20.6612 0.0842098 20.8978 0.0638739L21.5876 0.00402832C21.8347 0.42411 21.9934 0.770401 22.0783 1.26079C21.8265 1.43567 21.5905 1.57512 21.3288 1.72328L20.4861 2.2003L19.6604 2.68604L18.8207 3.22407L18.0472 3.76559L17.2566 4.30943C17.0288 4.4663 16.804 4.64642 16.5926 4.82363L15.8711 5.42616C15.6627 5.59988 15.4712 5.77419 15.2785 5.98859C14.9764 6.325 14.3205 6.40635 14.0751 5.96419C13.9973 5.3605 15.0343 4.40994 15.4934 4.0346L16.151 3.49657C16.4216 3.27462 16.6845 3.06719 16.965 2.86732L17.7034 2.34033L18.3359 1.89817L18.597 1.74129C18.2211 1.7901 17.923 1.87493 17.5816 1.98416L16.6652 2.27758L15.805 2.5588L14.8317 2.90393L13.9 3.24499L13.0445 3.56862L12.0929 3.95616L11.2591 4.32221L10.3561 4.73939L9.46951 5.15889L8.62217 5.57722L7.7233 6.06354L6.96789 6.51093L6.13226 7.05187C5.56249 7.42082 5.10807 7.8223 4.60213 8.2819C4.45983 8.41088 4.27596 8.55963 4.26834 8.77751C4.54943 8.95589 4.88379 8.95879 5.22226 8.9524L5.93843 8.93904L7.02177 8.88965L8.05474 8.83038L9.12987 8.7688L10.1587 8.71186L11.1765 8.67235L12.3272 8.65085L13.4099 8.65666L14.4909 8.7043C15.0618 8.72929 16.1581 8.87745 16.6435 9.15227C17.0886 9.40386 17.5307 9.76642 17.5459 10.344C17.5588 10.8169 17.3304 11.2533 17.2326 11.782L18.8986 10.0982L20.5751 8.54568L21.8218 8.93613C21.7855 9.23826 21.6831 9.47067 21.5706 9.74492L21.1478 10.7745L20.8586 11.4682C21.3774 11.5252 21.6028 11.2887 22.1545 11.298L22.8531 10.0837L23.6354 8.80424C23.7109 8.68106 23.9809 8.82922 24.1009 8.85711L24.9612 9.05524C24.8891 9.48985 24.8265 9.86693 24.7088 10.2492C24.5776 10.6775 24.0453 13.1236 24.2104 13.6401L25.1374 12.223C25.4402 11.7599 25.6586 11.2492 25.9994 10.8152L26.188 10.5752L26.9838 9.16389C27.1852 8.80714 27.3503 8.46666 27.5612 8.11747L27.9102 7.53993L28.5959 6.16522L29.2512 4.79516L29.6734 3.94106C29.9509 4.02937 30.0751 4.21646 30.2121 4.43028L30.4996 4.87941C30.5769 5.00027 30.4791 5.19549 30.4171 5.33087C30.2185 5.76548 30.0657 6.21345 29.8444 6.62888C29.6447 7.00422 29.4684 7.354 29.2974 7.74503C29.2242 7.91353 29.0854 8.07273 29.0064 8.2267L28.4442 9.32251C28.5971 9.35447 28.7587 9.34227 28.9379 9.30566C29.2014 9.25221 29.4508 9.23652 29.7085 9.21328L30.8094 9.11451L31.628 9.03665L32.4367 8.97274L33.2847 8.91289C33.352 8.90824 33.5365 8.88384 33.5581 8.94078L33.6799 9.26034C34.3077 9.15808 34.2275 8.94194 34.9471 8.91405C35.2458 8.90243 35.5146 8.90534 35.8068 8.9402L35.9116 9.33007L36.5844 9.62639C36.9106 9.7699 37.0476 10.133 37.132 10.4491L37.1554 10.5369C37.1595 10.5531 37.2175 10.4944 37.2286 10.4724L37.6233 9.69611C37.7837 9.3812 37.9178 9.08139 38.2217 8.84549L39.3683 9.35215C39.2834 9.79895 39.2172 10.1975 39.1124 10.6217C39.0199 10.9959 38.7054 12.3985 38.8489 12.7203L39.4503 11.7355C39.6031 11.4857 39.7683 11.2626 39.9129 11.0069L40.3691 10.201C40.5518 9.87855 40.7602 9.59792 40.9131 9.25802C41.0548 8.9431 41.2533 8.67118 41.4149 8.37312L42.0884 7.13205C42.3507 6.64863 42.5773 6.21693 42.8461 5.67077C43.1108 5.83113 43.4586 6.05715 43.7204 6.24598C43.8164 6.31513 43.7684 6.60273 43.718 6.71022L43.3948 7.40222L43.03 8.14477C43.5195 8.06634 43.8972 8.0123 44.3534 7.97105L45.281 7.88738L46.3988 7.79558L47.3639 7.73806C47.724 7.71656 48.9444 7.69274 48.9971 8.09481C49.0293 8.34116 48.1099 8.76996 47.946 8.8176C47.6514 8.90301 47.3387 8.97506 47.0348 9.03026L45.9597 9.2249C45.6036 9.28939 45.2441 9.34343 44.8874 9.42594C44.7194 9.6781 44.5812 9.96396 44.4049 10.1877L44.0688 10.6153C44.874 10.7187 46.3895 10.4497 47.0483 11.1127C46.6758 11.5194 46.1359 11.6292 45.6376 11.7303L44.6854 11.9226C44.4225 11.9761 44.1637 12.0196 43.9095 12.0475L43.0628 12.1416L42.0866 13.5483C42.2441 13.5402 42.4748 13.5384 42.6499 13.514L43.7532 13.3612L44.6708 13.2421L45.685 13.1271C46.0721 13.0835 46.4387 13.0562 46.8234 13.0486L47.7773 13.0289C48.0508 13.0231 48.3008 13.0399 48.6112 13.0614C48.6533 13.3287 46.8691 13.8138 46.6635 13.8702L45.8045 14.1055L44.8506 14.3542C44.5191 14.4402 44.2035 14.5198 43.8726 14.5837L42.8742 14.776C42.5117 14.8457 42.2002 14.9137 41.8301 14.8876C41.4143 14.8579 40.9324 14.7272 40.7807 14.3054C40.3919 13.2235 41.1069 12.9655 41.4606 12.1097L41.118 11.8017C41.0665 11.4514 40.4054 12.6989 40.3714 12.7604C40.0324 13.3775 39.6043 13.9382 39.1382 14.4547C38.7634 14.8696 37.7263 14.3414 37.5881 13.5413L37.4242 12.5896L36.9141 13.4548C36.8116 13.6285 36.7062 13.815 36.5926 13.9788C36.4234 14.2223 36.2249 14.4675 36.1025 14.7243C35.9666 15.0096 35.8419 14.9788 35.5644 15.0049L34.6385 15.0921L34.9126 14.0288C34.4207 14.4925 34.0524 14.7452 33.4668 15.0526C32.8039 15.4 31.9039 15.3262 31.5297 14.5668C31.4196 14.3432 31.3505 13.8772 31.3985 13.6244C31.6819 12.1405 31.8576 12.316 32.483 11.0493C32.2839 11.1708 32.1322 11.273 31.9484 11.4037L31.1812 11.9487L30.4007 12.4955L29.5621 13.0934C28.9244 13.5483 28.4747 13.7476 27.9072 14.2688L29.0614 14.1253L30.0241 14.0149C30.3866 13.9736 30.8024 13.8807 31.1449 14.0062C31.3118 14.3135 30.9576 14.5785 30.8557 14.8184C30.7245 15.1275 30.5787 15.1496 30.2941 15.2124L29.2149 15.4494L28.4161 15.6063L27.6127 15.7533L26.7525 15.9038L25.5907 16.1379C25.4162 16.1734 25.1199 16.1449 24.9887 16.246L24.5067 16.619L23.9176 17.0746L25.0133 16.9694L26.1001 16.8625L27.0786 16.7689L28.0999 16.6905L28.9221 16.6289L29.9439 16.5731L31.0032 16.529L31.8371 16.5005L32.9626 16.4622L33.9446 16.436L35.0572 16.4168L35.0578 16.4081ZM42.5504 10.6844L43.1822 9.7699C42.8479 9.63046 42.6324 9.50031 42.3595 9.30392C42.1176 9.80476 41.8775 10.2667 41.5771 10.7303L42.0737 10.7176C42.1891 10.7146 42.4772 10.7722 42.5498 10.6844H42.5504ZM25.4115 14.2281C25.8835 13.9504 26.2413 13.7313 26.6371 13.4606L27.3867 12.9481L28.1702 12.413L28.9549 11.8773L29.7401 11.3416L30.2279 10.9924C30.468 10.821 30.6976 10.6647 30.9195 10.4875L30.1208 10.5665L29.3548 10.6589C29.1575 10.6827 28.9332 10.6757 28.7405 10.7274C28.3658 10.8285 28.0126 10.7954 27.6531 10.6403L27.2766 11.2149C26.9668 11.6879 26.7326 12.1759 26.4046 12.6349C26.0954 13.0684 25.8472 13.5152 25.5813 13.9759L25.4109 14.2281H25.4115ZM33.328 13.6169L33.872 13.2241C34.3059 12.9109 35.7371 11.3573 35.7506 10.7507C35.5357 10.7536 35.3319 10.7652 35.1474 10.7937L34.5759 11.7343C34.4886 11.8779 34.286 12.0522 34.1472 12.058C33.9768 12.0655 33.7467 11.983 33.5634 11.8906L33.0955 12.6942C32.8789 13.0661 32.8226 13.5088 32.7471 13.9045C33.02 13.8441 33.143 13.7511 33.3286 13.6169H33.328ZM19.3764 11.7425C19.4286 11.6344 19.4895 11.4113 19.5146 11.2323L18.9736 11.85C19.1123 11.868 19.3343 11.8314 19.377 11.7431L19.3764 11.7425Z" fill="#F5F5F5"/>
</g>
</g>
<defs>
<clipPath id="clip0_420_412">
<rect width="49" height="21" fill="white"/>
</clipPath>
</defs>
</svg>
