<?xml version='1.0' encoding='utf-8'?>
<svg xmlns="http://www.w3.org/2000/svg" width="100" height="100" viewBox="0 0 100 100" fill="none">
<path d="M57.5469 71.6562C55.4808 78.0877 52.6407 82 49.9736 82C47.3067 81.9996 44.4683 78.087 42.4023 71.6562H57.5469ZM37.8154 71.6562C38.8672 75.2812 40.2136 78.4719 41.832 80.9531C35.812 79.375 30.4901 76.0969 26.3955 71.6562H37.8154ZM73.5527 71.6562C69.4544 76.0875 64.136 79.375 58.1162 80.9531C59.4628 78.8926 60.619 76.3467 61.5732 73.4629H61.5938C61.6089 73.3963 61.6228 73.3298 61.6377 73.2637C61.8089 72.7384 61.975 72.2026 62.1328 71.6562H73.5527ZM39.1572 51.6621C40.5429 51.914 41.8983 52.1916 43.2041 52.5195C46.9303 53.4533 50.1873 54.7707 52.5625 56.9287H52.5596C52.7039 57.0599 52.8438 57.1909 52.9805 57.3271C55.4295 59.7672 56.8789 63.2665 57.915 67.2725H41.2061C40.2143 62.935 39.3002 57.2514 39.1572 51.6621ZM81.999 51.5869C81.5644 57.0133 79.7184 62.9657 76.9482 67.2725H62.9414C63.7923 63.5896 64.75 60.7621 67.1592 57.9902L67.3311 57.7959L67.333 57.7852C67.4649 57.637 67.6042 57.4929 67.7432 57.3516C67.7529 57.3418 67.7627 57.332 67.7725 57.3223C67.8092 57.2857 67.8466 57.249 67.8838 57.2129C67.9844 57.1155 68.0861 57.0195 68.1895 56.9258V56.9248C71.5072 53.9095 76.4958 52.5638 81.999 51.5869ZM35.0361 52.1904C35.1551 57.3591 35.7343 62.5529 36.7266 67.2715H23.0088C20.1633 62.862 18.3757 57.7184 18 52.1904H35.0361ZM56.4717 59.9805C56.5173 60.0466 56.5412 60.0912 56.5449 60.1133C56.5207 60.069 56.4962 60.0244 56.4717 59.9805ZM76.9395 32.7275C79.7183 37.0337 81.5641 42.9851 81.999 48.4102C76.4323 47.4217 71.3921 46.0553 68.0752 42.9658C67.9747 42.8701 67.873 42.7742 67.7725 42.6758C67.6856 42.5891 67.5998 42.5003 67.5146 42.4102C65.2208 39.9837 63.8342 36.5912 62.834 32.7275H76.9395ZM57.9238 32.7275C56.9507 36.4874 55.612 39.8015 53.4268 42.2129C53.2824 42.3722 53.1358 42.5267 52.9863 42.6758C52.8804 42.7813 52.7718 42.8846 52.6621 42.9863C52.6275 43.0182 52.5928 43.0507 52.5576 43.082C49.3782 45.9649 44.6692 47.3201 39.4443 48.2871C39.6083 42.8206 40.2536 36.9483 41.2158 32.7275H57.9238ZM36.7266 32.7275C35.7248 37.4563 35.1586 42.6409 35.0303 47.8096H18C18.3757 42.2808 20.1632 37.1369 23.0088 32.7275H36.7266ZM41.832 19.0469C40.2137 21.528 38.8672 24.7189 37.8154 28.3438H26.3955C30.4938 23.9094 35.8123 20.6219 41.832 19.0469ZM49.9736 18C52.6407 18 55.4799 21.9127 57.5459 28.3438H42.4014C44.4673 21.9126 47.3067 18.0004 49.9736 18ZM58.1162 18.7998C64.1362 20.3779 69.4581 23.656 73.5527 28.0967H62.1328C61.081 24.4717 59.7346 21.2811 58.1162 18.7998Z" fill="#C4C4C4"/>
<path d="M50 0C91.175 0 100 8.825 100 50C100 91.175 91.175 100 50 100C8.825 100 0 91.175 0 50C0 8.825 8.825 0 50 0ZM50 12C29.0132 12 12 29.0132 12 50C12 70.9868 29.0132 88 50 88C70.9868 88 88 70.9868 88 50C88 29.0132 70.9868 12 50 12Z" fill="#C4C4C4"/>
</svg>