<?xml version='1.0' encoding='utf-8'?>
<svg xmlns="http://www.w3.org/2000/svg" width="526" height="345" viewBox="0 0 526 345" fill="none">
<g clip-path="url(#clip0_564_326)">
<path d="M270.783 75.5257H436.426C438.313 75.5257 439.143 76.016 439.61 76.3564C440.268 76.8409 441.041 77.7407 441.537 79.0674C442.033 80.394 442.039 81.5765 441.854 82.3725C441.727 82.932 441.416 83.8434 439.985 85.072L346.669 163.905C345.792 164.649 346.311 166.079 347.465 166.085L460.306 166.922C460.606 166.922 460.9 166.818 461.125 166.622L489.453 142.263C546.436 93.2569 511.677 0.00384521 436.426 0.00384521H270.783C270.097 0.00384521 269.543 0.557584 269.543 1.23822V74.2856C269.543 74.9662 270.097 75.5257 270.783 75.5257Z" fill="white"/>
<path d="M246.971 188.282H81.3279C6.07706 188.282 -28.6816 281.535 28.3074 330.547L56.6288 354.906C56.8538 355.102 57.1479 355.205 57.4479 355.205L170.289 354.369C171.437 354.358 171.962 352.927 171.085 352.189L77.7689 273.356C76.3385 272.127 76.0327 271.216 75.9001 270.656C75.7155 269.86 75.7213 268.678 76.2173 267.351C76.7134 266.025 77.4805 265.125 78.1439 264.64C78.6053 264.3 79.4417 263.81 81.3279 263.81H246.971C247.657 263.81 248.211 263.256 248.211 262.57V189.522C248.211 188.842 247.657 188.282 246.971 188.282Z" fill="white"/>
<path d="M436.426 188.267H270.783C270.097 188.267 269.543 188.821 269.543 189.501V262.555C269.543 263.235 270.097 263.789 270.783 263.789H436.426C438.313 263.789 439.143 264.279 439.61 264.62C440.268 265.104 441.041 266.004 441.537 267.331C442.033 268.657 442.039 269.84 441.854 270.636C441.727 271.195 441.416 272.107 439.985 273.335L346.669 352.168C345.792 352.912 346.311 354.343 347.465 354.348L460.306 355.185C460.606 355.185 460.9 355.081 461.125 354.885L489.453 330.526C546.436 281.52 511.683 188.261 436.432 188.261L436.426 188.267Z" fill="white"/>
<path d="M246.971 0.00384521H81.3279C6.07706 0.00384521 -28.6816 93.2569 28.3074 142.269L56.6288 166.627C56.8538 166.823 57.1479 166.933 57.4479 166.927L170.289 166.091C171.437 166.079 171.962 164.649 171.085 163.911L77.7689 85.0777C76.3385 83.8491 76.0327 82.9378 75.9001 82.3783C75.7155 81.5823 75.7213 80.3998 76.2173 79.0731C76.7134 77.7465 77.4805 76.8467 78.1439 76.3621C78.6053 76.0218 79.4417 75.5315 81.3279 75.5315H246.971C247.657 75.5315 248.211 74.9778 248.211 74.2914V1.23822C248.211 0.557584 247.657 0.00384521 246.971 0.00384521Z" fill="white"/>
</g>
<defs>
<clipPath id="clip0_564_326">
<rect width="526" height="344.079" fill="white"/>
</clipPath>
</defs>
</svg>