<?xml version='1.0' encoding='utf-8'?>
<svg xmlns="http://www.w3.org/2000/svg" width="499" height="68" viewBox="0 0 499 68" fill="none">
<path d="M29.1845 67.0733C22.6138 67.0733 17.2805 66.0066 13.1845 63.8732C9.1738 61.7399 6.1018 59.1372 3.96847 56.0652C1.92047 52.9932 0.597802 50.0066 0.000469208 47.1052L14.8485 42.2412C15.5311 44.8866 16.9818 47.2759 19.2005 49.4092C21.4191 51.4572 24.7471 52.4812 29.1845 52.4812C33.1951 52.4812 35.9258 51.8839 37.3765 50.6892C38.9125 49.4092 39.6805 48.0439 39.6805 46.5932C39.6805 44.8866 38.7845 43.3932 36.9925 42.1132C35.2005 40.8332 31.6165 39.9799 26.2405 39.5532C19.1578 38.9559 13.4831 37.0786 9.21647 33.9212C4.9498 30.7639 2.81647 26.1986 2.81647 20.2252V19.4572C2.81647 15.2759 3.96847 11.7346 6.27247 8.83325C8.57647 5.93191 11.5631 3.75591 15.2325 2.30525C18.9018 0.769245 22.7845 0.00124359 26.8805 0.00124359C32.2565 0.00124359 36.6938 0.854579 40.1925 2.56125C43.6911 4.18258 46.4218 6.23058 48.3845 8.70525C50.4325 11.1799 51.8831 13.6546 52.7365 16.1292L38.1445 22.0172C37.3765 19.7132 36.0538 17.9212 34.1765 16.6412C32.2991 15.2759 29.8671 14.5932 26.8805 14.5932C24.2351 14.5932 22.1871 15.1052 20.7365 16.1292C19.3711 17.0679 18.6885 18.2626 18.6885 19.7132C18.6885 21.7612 19.7551 23.2119 21.8885 24.0652C24.0218 24.9186 27.9045 25.6866 33.5365 26.3692C40.0218 27.0519 45.3125 29.0146 49.4085 32.2572C53.5045 35.4146 55.5525 39.8519 55.5525 45.5692V46.3372C55.5525 52.5666 53.2485 57.6012 48.6405 61.4412C44.0325 65.1959 37.5471 67.0733 29.1845 67.0733ZM94.8875 67.0733C89.8528 67.0733 85.2021 65.7933 80.9355 63.2332C76.6688 60.6732 73.2555 56.9612 70.6955 52.0972C68.1355 47.2332 66.8555 41.3879 66.8555 34.5612V32.5132C66.8555 25.7719 68.0928 19.9692 70.5675 15.1052C73.0421 10.2412 76.3275 6.52925 80.4235 3.96925C84.6048 1.32391 89.1701 0.00124359 94.1195 0.00124359C98.6421 0.00124359 102.269 0.769245 104.999 2.30525C107.815 3.84125 110.034 6.23058 111.655 9.47325H113.959V1.79325H130.087V46.0812C130.087 48.6412 131.239 49.9212 133.543 49.9212H135.975V65.2812H124.967C122.066 65.2812 119.677 64.4279 117.799 62.7212C116.007 60.9292 115.111 58.7106 115.111 56.0652H112.807C111.186 59.9906 108.797 62.8066 105.639 64.5132C102.567 66.2199 98.9835 67.0733 94.8875 67.0733ZM98.4715 51.7132C103.165 51.7132 106.919 50.1772 109.735 47.1052C112.551 43.9479 113.959 39.6812 113.959 34.3052V32.7692C113.959 27.3932 112.551 23.1692 109.735 20.0972C106.919 16.9399 103.165 15.3612 98.4715 15.3612C93.7781 15.3612 90.0235 16.9399 87.2075 20.0972C84.3915 23.1692 82.9835 27.3932 82.9835 32.7692V34.3052C82.9835 39.6812 84.3915 43.9479 87.2075 47.1052C90.0235 50.1772 93.7781 51.7132 98.4715 51.7132ZM144.974 65.2812V1.79325H161.102V11.2652H163.406C164.857 7.68125 167.204 4.90791 170.446 2.94525C173.689 0.982578 177.486 0.00124359 181.838 0.00124359C185.934 0.00124359 189.646 0.897245 192.974 2.68925C196.388 4.39591 199.076 7.12658 201.038 10.8812C203.086 14.5506 204.11 19.2866 204.11 25.0892V65.2812H187.982V29.1852C187.982 24.6626 186.873 21.1212 184.654 18.5612C182.521 15.9159 179.406 14.5932 175.31 14.5932C170.617 14.5932 167.076 16.2146 164.686 19.4572C162.297 22.6146 161.102 26.8812 161.102 32.2572V65.2812H144.974ZM219.893 65.2812V38.4012L259.829 18.9452V16.6412H220.661V1.79325H273.653V27.9052L233.717 47.6172V49.9212H275.189V65.2812H219.893ZM320.668 67.0733C314.866 67.0733 309.447 65.7933 304.412 63.2332C299.378 60.6732 295.324 56.9612 292.252 52.0972C289.18 47.2332 287.644 41.3026 287.644 34.3052V32.7692C287.644 25.8572 289.18 19.9692 292.252 15.1052C295.324 10.1559 299.378 6.40125 304.412 3.84125C309.447 1.28124 314.866 0.00124359 320.668 0.00124359C326.471 0.00124359 331.89 1.28124 336.924 3.84125C341.959 6.40125 346.012 10.1559 349.084 15.1052C352.156 19.9692 353.692 25.8572 353.692 32.7692V34.3052C353.692 41.3026 352.156 47.2332 349.084 52.0972C346.012 56.9612 341.959 60.6732 336.924 63.2332C331.89 65.7933 326.471 67.0733 320.668 67.0733ZM320.668 51.7132C325.362 51.7132 329.33 50.2199 332.572 47.2332C335.9 44.1612 337.564 40.0226 337.564 34.8172V32.2572C337.564 26.9666 335.9 22.8279 332.572 19.8412C329.33 16.8546 325.362 15.3612 320.668 15.3612C315.975 15.3612 311.964 16.8546 308.636 19.8412C305.394 22.8279 303.772 26.9666 303.772 32.2572V34.8172C303.772 40.0226 305.394 44.1612 308.636 47.2332C311.964 50.2199 315.975 51.7132 320.668 51.7132ZM364.739 65.2812V1.79325H380.867V11.2652H383.171C384.622 7.68125 386.969 4.90791 390.211 2.94525C393.454 0.982578 397.251 0.00124359 401.603 0.00124359C405.699 0.00124359 409.411 0.897245 412.739 2.68925C416.153 4.39591 418.841 7.12658 420.803 10.8812C422.851 14.5506 423.875 19.2866 423.875 25.0892V65.2812H407.747V29.1852C407.747 24.6626 406.638 21.1212 404.419 18.5612C402.286 15.9159 399.171 14.5932 395.075 14.5932C390.382 14.5932 386.841 16.2146 384.451 19.4572C382.062 22.6146 380.867 26.8812 380.867 32.2572V65.2812H364.739ZM467.818 67.0733C461.504 67.0733 455.914 65.7506 451.05 63.1052C446.186 60.3746 442.389 56.4919 439.658 51.4572C436.928 46.4226 435.562 40.3639 435.562 33.2812V32.5132C435.562 26.0279 437.013 20.3532 439.914 15.4892C442.816 10.6252 446.656 6.82792 451.434 4.09725C456.298 1.36658 461.674 0.00124359 467.562 0.00124359C473.024 0.00124359 477.717 0.939911 481.642 2.81725C485.568 4.69458 488.768 7.12658 491.242 10.1132C493.802 13.0999 495.68 16.3852 496.874 19.9692C498.154 23.4679 498.794 26.8812 498.794 30.2092V38.7852H452.202C452.373 42.5399 453.952 45.6546 456.938 48.1292C459.925 50.5186 463.466 51.7132 467.562 51.7132C471.573 51.7132 474.645 50.9879 476.778 49.5372C478.997 48.0866 480.533 46.4226 481.386 44.5452L495.21 52.2252C494.272 54.3586 492.693 56.5772 490.474 58.8812C488.341 61.1852 485.44 63.1479 481.77 64.7692C478.101 66.3053 473.45 67.0733 467.818 67.0733ZM452.458 24.9612H482.41C481.898 21.9746 480.277 19.4999 477.546 17.5372C474.901 15.5746 471.53 14.5932 467.434 14.5932C463.424 14.5932 460.096 15.6599 457.45 17.7932C454.89 19.8412 453.226 22.2306 452.458 24.9612Z" fill="white"/>
</svg>